# xmcd
#
# Track frame offsets:
#	150
#	17526
#	31849
#	46187
#	66568
#	85635
#	98006
#	113674
#	141150
#	160894
#	178480
#	192227
#
# Disc length: 2720 seconds
#
# Revision: 0
# Processed by: cddbd v1.5PL3 Copyright (c) Steve Scherf et al.
# Submitted via: EZCDDA 4.3.3.2
#
DISCID=980a9e0c
DTITLE=Terri White - The Lady's Got To Sing
DYEAR=1900
DGENRE=
TTITLE0=Knowbody Knows when your down and out
TTITLE1=Summertime
TTITLE2=Call It Stormy Monday
TTITLE3=God Bless the Child
TTITLE4=Everything Must Change
TTITLE5=Route 66
TTITLE6=Old Devil Moon
TTITLE7=You've Changed
TTITLE8=Drinking Again
TTITLE9=Here's To Life
TTITLE10=The Lady's Got To Sing
TTITLE11=Mama, A Rainbow
EXTD=
EXTT0=
EXTT1=
EXTT2=
EXTT3=
EXTT4=
EXTT5=
EXTT6=
EXTT7=
EXTT8=
EXTT9=
EXTT10=
EXTT11=
PLAYORDER=
